<svg xmlns="http://www.w3.org/2000/svg" width="335.297" height="335.297" shape-rendering="geometricPrecision"><g transform="translate(335.297, 0) scale(-1, 1)scale(1.30975390625,1.30975390625)" stroke-width=".05%"><g fill="#839090"><path d=" M 192.70 52.58 C 197.72 46.96 205.63 46.70 212.57 45.64 C 209.41 47.14 206.10 48.26 202.81 49.43 C 198.80 50.81 195.55 53.61 192.13 56.01 C 187.74 59.10 183.36 62.21 179.20 65.60 C 184.30 66.26 188.82 63.74 193.35 61.87 C 190.72 64.02 187.75 65.70 184.68 67.13 C 184.49 67.50 184.11 68.23 183.92 68.60 C 185.08 69.00 186.25 69.39 187.43 69.79 C 186.85 72.91 186.66 76.24 184.91 78.99 C 182.99 82.10 180.86 85.10 179.21 88.37 C 176.23 90.62 173.28 92.92 170.49 95.40 C 174.01 93.86 177.48 92.22 180.96 90.57 C 182.60 91.19 184.25 91.82 185.90 92.45 C 185.31 95.89 184.67 99.32 184.05 102.76 C 186.44 101.30 188.88 99.94 191.37 98.66 C 187.95 104.61 182.21 108.46 176.59 112.11 C 185.98 107.68 195.76 104.21 205.17 99.82 C 196.24 105.17 186.99 110.17 179.04 116.95 C 184.41 116.41 188.64 112.87 193.27 110.48 C 197.66 108.14 201.87 105.49 206.20 103.03 C 198.77 108.36 190.50 112.32 182.67 117.00 C 182.64 117.86 182.58 119.58 182.54 120.44 C 185.22 119.21 187.90 117.98 190.48 116.55 C 197.67 112.36 205.70 109.96 213.13 106.27 C 217.87 103.89 222.90 102.17 228.09 101.11 C 227.82 104.21 226.58 107.05 224.39 109.27 C 225.69 109.80 226.98 110.34 228.28 110.89 C 227.01 112.12 225.75 113.36 224.49 114.60 C 224.53 115.94 224.57 117.28 224.61 118.63 C 220.25 120.90 215.78 122.98 211.55 125.49 C 207.10 128.10 203.49 131.83 199.87 135.44 C 199.28 135.64 198.70 135.85 198.12 136.06 C 195.76 140.12 191.33 141.63 187.14 143.02 C 186.37 144.36 186.00 146.21 184.37 146.80 C 179.80 148.82 175.38 151.16 170.99 153.53 C 171.52 154.41 172.07 155.28 172.61 156.16 C 168.07 157.73 164.07 160.39 160.22 163.20 C 153.58 167.43 147.65 172.64 141.47 177.49 C 141.01 177.01 140.54 176.53 140.08 176.06 C 134.87 180.74 130.09 186.37 123.60 189.28 C 125.87 185.13 129.37 181.92 132.60 178.54 C 122.27 185.41 113.99 194.79 104.12 202.22 C 102.17 203.76 101.41 200.87 100.79 199.59 C 103.34 196.84 105.84 194.05 108.43 191.34 C 108.45 190.39 108.46 189.45 108.47 188.51 C 114.01 185.22 116.62 179.22 119.61 173.83 C 118.59 174.51 117.58 175.20 116.56 175.88 C 116.15 175.41 115.33 174.46 114.92 173.98 C 113.23 175.65 111.50 177.26 109.73 178.83 C 110.55 179.45 111.36 180.07 112.18 180.70 C 109.28 183.11 106.37 185.51 103.65 188.12 C 103.61 189.19 103.56 190.27 103.52 191.35 C 102.78 192.08 102.04 192.81 101.30 193.55 C 101.48 191.95 101.65 190.35 101.84 188.75 C 100.29 190.38 98.72 192.00 97.11 193.56 C 97.50 191.65 97.29 189.36 98.91 187.95 C 103.76 182.76 109.65 178.43 113.26 172.17 C 109.47 174.42 106.23 177.43 103.25 180.66 C 103.41 179.09 103.58 177.53 103.75 175.97 C 100.22 179.87 96.57 183.70 92.14 186.59 C 95.81 181.21 99.33 175.57 104.46 171.43 C 104.45 170.45 104.44 169.48 104.43 168.51 C 107.98 165.11 111.57 161.74 114.67 157.91 C 108.09 162.84 102.40 168.80 96.39 174.38 C 94.68 175.97 92.64 177.12 90.61 178.24 C 92.17 176.25 93.84 174.35 95.59 172.53 C 94.98 171.89 94.38 171.25 93.78 170.62 C 95.26 170.59 96.74 170.55 98.22 170.53 C 108.28 160.21 119.16 150.73 130.50 141.83 C 128.14 142.89 125.80 143.96 123.46 145.04 C 130.20 137.47 139.34 132.71 146.56 125.68 C 137.30 130.76 129.57 138.11 120.57 143.59 C 115.78 146.20 113.51 152.35 107.67 153.11 C 109.84 150.33 112.22 147.72 114.57 145.09 C 106.65 151.76 98.05 157.65 90.77 165.05 C 87.48 166.37 85.13 169.06 83.21 171.95 C 82.02 171.48 80.83 171.01 79.64 170.53 C 79.62 171.47 79.60 172.41 79.59 173.35 C 77.92 174.52 76.26 175.70 74.60 176.87 C 74.62 177.74 74.63 178.62 74.63 179.50 C 73.40 179.55 72.16 179.59 70.92 179.64 C 67.72 185.95 63.70 191.88 58.56 196.78 C 59.61 194.63 60.69 192.49 61.79 190.36 C 59.50 192.17 57.19 193.96 54.84 195.69 C 58.48 191.02 62.66 186.81 66.24 182.10 C 66.56 179.68 67.12 177.30 67.83 174.96 C 64.33 178.78 60.53 182.31 56.96 186.06 C 55.95 185.59 54.95 185.12 53.95 184.66 C 51.17 188.30 47.63 191.21 44.12 194.10 C 35.76 201.83 28.44 210.59 20.83 219.04 C 24.22 214.55 27.60 210.05 30.28 205.10 C 32.70 200.39 37.60 197.83 40.59 193.58 C 42.90 190.45 44.98 187.14 46.80 183.70 C 45.81 183.37 44.10 184.07 43.86 182.63 C 45.00 181.11 46.89 180.69 48.71 180.85 C 50.79 179.48 52.95 178.09 54.43 176.06 C 55.76 173.85 56.17 171.24 56.88 168.80 C 52.00 170.76 47.20 172.94 42.78 175.79 C 44.42 173.28 45.85 170.65 47.37 168.07 C 48.51 166.26 49.42 164.31 50.10 162.28 C 46.15 165.09 42.86 169.01 38.05 170.40 C 41.86 165.25 45.18 159.17 51.45 156.68 C 50.95 156.00 50.45 155.33 49.95 154.66 C 53.21 150.70 56.78 147.02 60.43 143.42 C 64.59 139.40 67.56 134.37 71.55 130.20 C 70.78 130.35 69.25 130.65 68.48 130.80 C 73.28 124.85 79.40 120.19 84.48 114.51 C 90.56 107.63 97.45 101.55 103.60 94.75 C 106.39 91.88 109.70 89.48 111.93 86.11 C 112.98 85.21 114.03 84.31 115.09 83.43 C 113.82 83.46 111.27 83.53 110.00 83.56 C 113.09 81.63 116.25 79.81 119.35 77.91 C 113.06 80.19 107.73 84.39 101.56 86.93 C 103.62 85.00 105.77 83.19 107.90 81.35 C 106.07 81.30 104.24 81.25 102.41 81.18 C 106.03 77.68 111.14 77.32 115.62 75.58 C 112.80 75.96 110.02 76.55 107.24 77.08 C 110.73 74.40 114.44 72.04 118.23 69.81 C 110.51 73.69 102.51 77.04 95.08 81.46 C 95.24 80.52 95.41 79.57 95.58 78.62 C 96.21 78.61 97.48 78.58 98.11 78.57 C 102.38 73.73 108.57 71.47 113.41 67.35 C 112.83 66.82 111.68 65.78 111.11 65.26 C 116.98 62.68 122.29 59.06 127.76 55.75 C 130.89 53.84 133.82 51.44 137.40 50.42 C 140.64 49.49 144.00 49.19 147.32 48.70 C 148.13 49.31 148.93 49.92 149.74 50.54 C 151.31 50.44 152.88 50.34 154.45 50.23 C 151.25 51.62 148.53 53.80 145.66 55.73 C 143.12 56.95 140.18 56.80 137.44 57.12 C 137.36 58.73 137.31 60.35 137.24 61.97 C 143.47 60.22 149.30 57.06 155.80 56.34 C 149.13 62.56 140.05 64.97 132.58 70.01 C 143.18 66.53 152.51 59.88 163.37 57.06 C 163.54 56.59 163.86 55.65 164.02 55.18 C 161.86 55.37 159.70 55.54 157.54 55.68 C 163.42 52.58 170.13 51.53 175.91 48.22 C 178.82 46.45 182.27 46.51 185.55 46.42 C 182.07 48.19 178.28 49.65 175.71 52.76 C 176.88 52.46 179.23 51.85 180.40 51.55 C 177.39 54.02 174.60 56.75 172.28 59.88 C 179.01 58.51 185.60 56.44 192.40 55.37 C 192.47 54.67 192.62 53.28 192.70 52.58 M 153.63 150.13 C 149.47 152.30 144.93 153.96 141.37 157.11 C 138.67 159.86 136.38 162.98 133.55 165.61 C 136.61 163.48 139.89 161.69 143.22 160.00 C 148.31 157.63 151.29 152.16 156.99 150.84 C 159.97 147.75 163.40 145.16 167.14 143.07 C 162.56 145.28 158.23 147.95 153.63 150.13 Z"/><path d=" M 187.57 149.50 C 192.39 145.26 197.51 141.17 203.52 138.75 C 198.48 142.73 192.99 146.07 187.57 149.50 Z"/></g></g><g transform="translate(335.297, 0) scale(-1, 1)translate(0, 335.297) scale(1, -1)scale(2.6195078125,2.6195078125)" stroke-width=".05%"><g fill="#9d8e6c"><path d="M54.81 32.67c.59-.33 1.77-.99 2.37-1.31-.25 2.08-.95 4.06-1.54 6.06-1.05-1.23-2.11-2.47-3.03-3.8-1.07.98-1.2 4.31-3.12 2.79-2.49-1.38-3.51 2.35-2.86 4.23-1.4-.64-2.74-1.43-4.1-2.16 1.33-.85 2.68-1.66 4.02-2.51l-1.14-.58c1.4-.36 2.79-.74 4.16-1.19 1.65-.8 3.28-2.08 5.24-1.53zM57.57 31.63c1.93.16 3.87.18 5.8.08-.81 1.71-1.66 3.4-2.56 5.07-1.18-1.65-2.31-3.34-3.24-5.15zM70.91 31.46c.75.38 2.24 1.12 2.98 1.49.35-.25 1.04-.73 1.39-.98.34 2.08 1.87 1.94 3.15.74l-.55 1.09c4.66 1.35 8.03 5.07 11.55 8.17-1.02 1.23-2.49 1.88-3.9 2.55-.09-1.92-.29-3.84-1.18-5.58-.54.46-1.61 1.36-2.14 1.81-.08-.62-.24-1.84-.31-2.46l-1.28-3.11c-1.02.68-2.04 1.36-3.06 2.03-.39-1.32-1.09-2.48-2.38-3.09-.8 1.13-1.63 2.24-2.49 3.32-.64-1.98-1.24-3.97-1.78-5.98zM40.63 40.66c.65-.58 1.32-1.15 1.99-1.71.24 1.83.39 3.67.49 5.51-1.52-.53-3-1.18-4.37-2.04.59-.63 1.22-1.22 1.89-1.76zM37.02 49.22c-1.8-1.74-.67-4.63.86-5.85 1.6 1.05.93 3.33 1.49 4.9l-2.08-.83c.26.74.77 2.22 1.03 2.97l-2.94-1.92c.48.82 1.43 2.46 1.9 3.28-.91-.29-1.82-.59-2.73-.88.24-1.08.47-2.17.68-3.26l1.79 1.59zM89.99 43.27c.77 1.16 1.6 2.26 2.45 3.37-.41.33-1.21 1.01-1.62 1.35 1.8.01 2.66 1.39 3.45 2.76-.96.45-1.92.9-2.88 1.34l.64-3.16-2.08 1c.25-.6.74-1.8.98-2.4l-2.14.67c.38-1.65.79-3.29 1.2-4.93zM34.24 51.93c.53.74 1.06 1.49 1.58 2.25-.43.7-.51 1.42-.25 2.18l-.05.54c-.28-.03-.83-.09-1.11-.11-.16-1.62-.1-3.25-.17-4.86zM93.34 52.05c1.69.04.92 2.82-.26 3.19-1.83.02-.75-2.7.26-3.19zM93.17 56.13h.66l.01.67h-.67v-.67zM36.17 77.25c1.14 1.52 1.53 3.37 1.85 5.2-.53-1.67-3.42-3.41-1.85-5.2zM88.97 82.62c1.43-1.85 2.84-3.73 4.37-5.51-1.19 2.4-2.85 4.53-4.96 6.19l-.89-1.17c-.19.65-.57 1.96-.76 2.62l-.54-1.13c-1.6 1.27-3.66 1.4-5.61 1.66.38-.47 1.14-1.39 1.52-1.85-1.42-.57-2.33-1.61-2.72-3.12.75.6 2.26 1.8 3.01 2.4.51-1.08 1.04-2.16 1.58-3.22-.02.99-.08 2.97-.11 3.96.76-.1 1.52-.19 2.28-.29-.19-1.62.92-2.48 2.11-3.19l.72 2.65zM52.7 85.35c.85-2.4 1.87-4.73 2.88-7.06.72 2.58 1.59 5.12 2.15 7.75-1.67-.29-3.35-.52-5.03-.69zM72.49 78.44c1.31 2.47 2.83 4.97 2.67 7.89-.39-.31-1.17-.94-1.56-1.25-.69.41-2.07 1.21-2.77 1.62.04-2.85 1-5.53 1.66-8.26zM39.16 80.72c1.23.33 1.43 1.11.6 2.35-1.26-.33-1.46-1.12-.6-2.35zM41.03 83.75c-.35-.97-.67-3.2.66-3.46.92 1.09 1.83 6.12-.66 3.46zM43.88 84.86c.27-1.51.56-3.01.78-4.53.39.39 1.17 1.16 1.56 1.55 1.18-.36 2.13-1.23 3.22-1.79.28 2.19 1.73 3.82 3.01 5.51-1.5-.22-3.01-.37-4.52-.45.51-1.3 2.02-2.61.85-3.97l-.43-.18c-.17.47-.5 1.41-.66 1.88-.37-.01-1.12-.04-1.49-.06l-.43.27c.38.5 1.14 1.49 1.53 1.98-.86-.05-2.57-.16-3.42-.21z"/><path d="M51.67 83.08c-1.77.01-.88-3.35.64-2.84.45 1.09.24 2.03-.64 2.84zM76.04 85.93c.35-2.14-.18-4.35.57-6.42.19 1.26.56 3.77.75 5.03l1.08-4.13c.52 1.63 1.09 3.25 1.71 4.85-1.45-.19-2.81.04-4.11.67zM61.97 80.17c.53 1.8.51 3.77 1.23 5.5.89-.02 1.78-.08 2.67-.17.44-1.84.97-3.65 1.46-5.47.94 1.54 1.87 3.1 2.79 4.65-.18.33-.55.97-.74 1.29-1.26.11-2.52.27-3.77.49-2.44.45-4.86-.39-7.3-.44.73-2.22 2.41-3.93 3.66-5.85z"/><path d="M65.02 31.7c1.84.16 3.68.11 5.52-.12-.86 1.88-1.91 3.65-3.02 5.4-.89-1.73-1.72-3.49-2.5-5.28z"/><path d="M34.09 58.12c3.31.12-1.51 3.03 0 0z"/><path d="M93.24 58.13c.57.62.57.62 0 0z"/></g><g fill="#390d00"><path d="M61.75 24.79c.3.45.91 1.35 1.21 1.8-.17.35-.5 1.06-.66 1.42-.34 1.01-.67 2.03-1 3.04-1.4-.14-2.8-.28-4.2-.4-1.09.35-2.19.72-3.28 1.1-1.1.2-2.2.41-3.3.63-1.68 1-3.49 1.75-5.17 2.75-.74 1.02-1.76 1.74-2.89 2.26-1.14 1.84-2.91 3.1-4.52 4.48.85 1.03 1.66 2.09 2.44 3.18-.98-.74-1.91-1.54-2.87-2.32-1.44 2.2-2.85 4.44-3.26 7.1-.11-.74-.32-2.2-.43-2.93-1.88.45-.3 2.7-.48 4 1.6.48 4.45.68 2.44 2.67-.66-.83-1.34-1.64-2.04-2.44 0 6.22 2 14.67-4.04 18.73-.5 1.19-1.08 2.36-2.23 3.05-3.04.11-6.16.06-9.02-1.08-.56-4.32 1.78-7.98 3.84-11.54 2.39-3.37 3.53-7.56 6.51-10.51 2.34-2.4 4.66-5.16 5.18-8.59.95-.88 2.13-.88 3.04.05-.02-3.65 2.97-6.5 5.41-8.91 3.84-3.16 8.62-5.46 13.67-5.48 2.05-.12 4.41-.04 5.65-2.06M34.94 42.05c-.17.91-2.14 3.86-.22 3.7.79-1.09 1.24-2.32 1.35-3.67-.28-.01-.85-.02-1.13-.03m-2.77 8.33c-.23 3.23-.12 6.46-.17 9.68.21 3.25-2.42 5.85-2.28 9.11 2.35-2.95 3.59-6.76 3.41-10.54-.17-2.76.87-5.85-.96-8.25zM65.69 24.72c3.14 3.16 7.84 1.45 11.62 3.01 5.98 1.98 11.6 6.28 13.71 12.39 1.06.21 2.08.57 3.03 1.08.75 5.81 6.64 8.68 8.72 13.85 2.42 5.46 7.32 10.19 6.86 16.56-2.16 1.95-5.06 1.01-7.66 1.35-1.97.49-3-1.58-3.71-3.04-2.28-1.01-2.53-3.75-4.02-5.5-.16-2.78-.48-5.64.32-8.36.23 4.57.67 9.44 3.71 13.13.09-2.66-1.51-4.85-2.14-7.32-.37-3.71-.05-7.44-.26-11.16-1.9 1.43-.9 3.7-1.43 5.65-.5-1.79-.47-3.65-.63-5.47l1.64.02c-.25-1.5-.46-3.01-.65-4.52l-1.38-.17c.14.89.41 2.67.55 3.55-.97-2.62-1.98-5.56-4.41-7.18-.17-2.48-3.11-3.12-3.91-5.27-1.16-.52-2.24-1.19-3.06-2.18-1.74-.82-3.58-1.46-5.07-2.7-1.7-.42-3.65-.21-5.08-1.35-3.44-.12-6.93-.18-10.16 1.22.81-.97 1.97-1.44 3.05-2.03.58-1.8.38-3.7.36-5.56M94 45.79c-.01-1.41-.37-2.76-1.09-4.04-1.81.3-.44 4.54 1.09 4.04zM16.98 74.56c.88-.75 2.32-2.23 3.36-.86 1.21.83-.46 1.5-1.03 1.97 3.81 1.07 6.98 3.45 10.46 5.2 1.6.13 3.21.31 4.79.63-.03 1.71-.21 3.42-.1 5.14 3.45 3.46 9.62 2.13 12.49 6.36.69 2.43-2.32 3.14-3.9 4-2.65 1.1-3.45 5.41-7.12 4.04 1.42.68 2.89 1.24 4.25 2.02-1.89.4-3.46-.02-4.72-1.25-5.43-.55-10.55-3.06-14.72-6.52-3.92-3.54-2.88-9.27-4.37-13.85-.92-2.29.3-4.6.61-6.88z"/><path d="M26.62 74.67c1.05-.62 2.1-1.24 3.12-1.89.53 1.24 1.09 2.47 1.65 3.7 2.02.61 3.61 1.72 3.37 4.1-1.74-.2-3.48-.32-5.22-.34-.74-.52-1.47-1.03-2.21-1.54-1.62-1.51-4.31-1.9-5.48-3.73.65-2.2 3.23-.59 4.77-.3zM98.26 72.78c1.02.65 2.07 1.27 3.12 1.89 1.53-.29 4.12-1.9 4.77.3-1.17 1.83-3.87 2.21-5.49 3.73-.73.52-1.47 1.04-2.21 1.56-1.75.01-3.5.12-5.24.33-.18-2.36 1.35-3.5 3.38-4.09.57-1.24 1.13-2.47 1.67-3.72zM107 74.32c.43.43.43.43 0 0z"/><path d="M104.49 77.28c2.21-.7 4.04-2.17 6.09-3.2.52 2.18 1.97 4.38 1.22 6.69-1.67 4.98-.54 11.33-5.05 15.02-4.61 3.3-10.14 6.53-16.05 5.65l1.04 1.49c-7.35.93-11.53-6.54-18.3-7.52-3.49-.45-5.9-3.19-8.83-4.83.83-.46 2.5-1.38 3.33-1.84-2.58.24-5.15.19-7.69-.16-2.02.89-4.02-.04-5.99-.29 1.64 3.38 6.43.3 9.19 2.02-1.94 1.43-3.82 2.94-5.88 4.18-2.61 1.19-5.69 1.14-8.11 2.79-2.76 1.87-5.37 4.04-8.54 5.23-.5-.45-1-.9-1.49-1.35 2.04-.66 3.18-2.71 4.79-4.01 1.1-.31 2.2-.62 3.29-.94l-.38-.5c1.63-1.32.57-3.05-.3-4.38-2.51-3.38-7.46-2.23-10.5-4.97-2.54-.88-.75-3.57.4-4.92l2.12 1.8.23.82c2.57.9 5.14 1.78 7.75 2.54.24-.42.72-1.27.97-1.69l.26 1.77c1.6-.14 3.21-.19 4.81-.34l.22.63 4.66.36c-.1-.51-.31-1.53-.41-2.04.55.61 1.09 1.24 1.62 1.87 1.19-.02 2.39 0 3.58.11 2.53-.31 5.08-.35 7.63-.44.39 1.22.69 3.24 2.42 3.11-.13-.97-1.29-2.72.31-3.05 5.32-.09 10.79-.23 15.59-2.85 1.09-1.1 2.45-1.83 3.81-2.53l-.31-2.91c.66 1.35 1.19 2.77 1.77 4.16l.81-1.69c.91-.03 2.71-.09 3.61-.13 2.13-1.17 4.28-2.32 6.31-3.66m-19.54 11.7c-2.81.29-4.42 2.92-5.15 5.39.43.54 1.31 1.62 1.75 2.16 2.4.51 4.93 2.25 5.5 4.76.55-.38 1.11-.75 1.67-1.12-1.58-1.46-3.07-3.09-5.14-3.82-1.57-.5-3.76-2.32-2.06-3.99 3.25-3.35 8.56-2.73 12.21-5.54-.06-.97-.18-2.92-.23-3.89-.39 4.22-5.12 5.27-8.55 6.05m4.1 12.21l.64 1.16.82-.45-.1-.89-.89-.34-.47.52z"/><path d="M92.16 52.18l.67-.02.01.67-.67.01-.01-.66z"/><path d="M35.3 80.74c.43.26.43.26 0 0z"/><path d="M62.96 26.59c.92-.61 1.83-1.23 2.73-1.87.02 1.86.22 3.76-.36 5.56l-.1-1.16c-.65-.19-1.94-.58-2.59-.77l-.34-.34c.16-.36.49-1.07.66-1.42z"/><path d="M88.24 44.21c.56.63.56.63 0 0z"/><path d="M89.05 101.19l.47-.52.89.34.1.89-.82.45-.64-1.16z"/></g></g></svg>